<svg width="24" height="24" viewBox="0 0 24 24" fill="none" xmlns="http://www.w3.org/2000/svg">
<path fill-rule="evenodd" clip-rule="evenodd" d="M12 24C18.6274 24 24 18.6274 24 12C24 5.37258 18.6274 0 12 0C5.37258 0 0 5.37258 0 12C0 18.6274 5.37258 24 12 24ZM17.2005 13.4316C17.1064 13.067 17.0123 12.7024 17.0123 12.7259C16.4478 13.2434 15.6951 13.7609 14.8483 14.0431C14.0486 14.3254 13.6722 14.4195 12.6373 14.3724C10.4733 14.2783 10.6144 11.1264 11.7905 8.58609C12.4491 7.26887 13.2488 6.328 14.3779 6.23392C14.7953 6.20937 14.7129 6.5308 14.619 6.89726C14.533 7.23294 14.4373 7.60642 14.7072 7.78635C15.4128 8.25678 16.2126 8.16269 16.8712 7.31591C17.5298 6.51617 17.1534 5.48121 16.6359 4.86965C15.1306 2.98791 11.8375 3.45835 10.0969 4.54035C8.12109 5.76348 6.56866 7.88043 5.91005 10.1385C5.62779 11.1264 5.43961 12.3025 5.53369 13.3845C5.5869 13.7572 5.78278 14.4071 5.863 14.6547C6.09822 15.2663 6.42752 15.7837 6.99204 16.2542C7.55656 16.7246 8.30926 17.0069 9.10899 17.1009V17.148C9.09756 17.1937 9.08057 17.2506 9.06208 17.3124C9.00447 17.5052 8.93226 17.7468 8.96787 17.8536H9.01492C9.05703 17.8677 9.09496 17.8775 9.13119 17.8869C9.21639 17.9091 9.29224 17.9288 9.39126 17.9948C9.90874 18.23 10.238 18.7004 10.0499 19.0297C9.90873 19.359 9.34421 19.4061 8.82674 19.1709C8.54448 19.0297 8.30926 18.8416 8.21518 18.6534C8.16813 18.5593 8.027 18.5122 7.93291 18.6063C7.65065 18.9356 7.46248 19.359 7.50952 19.7824C7.65065 20.7703 8.87378 21.476 10.3321 21.2878C11.7905 21.0996 12.8725 20.1588 12.7313 19.1709C12.6373 18.277 11.6494 17.5714 10.4262 17.5243V17.5243C10.4262 17.4302 10.4262 17.3361 10.4733 17.2421C11.7434 17.195 13.0136 16.9128 13.8133 16.5835C15.3187 15.9719 16.3537 15.1722 17.3886 14.1372C17.3886 14.1607 17.2946 13.7962 17.2005 13.4316Z" fill="#A72B29"/>
</svg>
